# xmcd CD database file
#
# Track frame offsets:
#	150
#	28110
#	48512
#	76812
#	97700
#	117550
#	138452
#	158840
#	177662
#	198647
#	219097
#	237802
#	255830
#	273290
#	290182
#	315225
#
# Disc length: 4433 seconds
#
# Revision: 0
# Processed by: cddbd v1.5.2PL0 Copyright (c) Steve Scherf et al.
# Submitted via: CDex 1.51
#
DISCID=da114f10
DTITLE=TheALFEE 安全地帯 チャゲ＆飛鳥 チェッカーズ - BIG WAVE2
DYEAR=1986
DGENRE=J-pop
TTITLE0=Rockdom
TTITLE1=風曜日、君をつれて
TTITLE2=SWEAT＆TEARS
TTITLE3=シンデレラは眠れない
TTITLE4=プルシアンブルーの肖像
TTITLE5=恋の予感
TTITLE6=悲しみにさよなら
TTITLE7=ワインレッドの心
TTITLE8=指輪が泣いた
TTITLE9=Count down
TTITLE10=モーニングムーン
TTITLE11=万里の河
TTITLE12=NANA
TTITLE13=俺たちのロカビリーナイト
TTITLE14=Song For USA
TTITLE15=OH！POPSTAR
EXTD=YEAR: 1986
EXTT0=
EXTT1=
EXTT2=
EXTT3=
EXTT4=
EXTT5=
EXTT6=
EXTT7=
EXTT8=
EXTT9=
EXTT10=
EXTT11=
EXTT12=
EXTT13=
EXTT14=
EXTT15=
PLAYORDER=
